{"title":"Blood Father 2016 Movies HDRip XviD ESubs AAC New +Sample ☻rDX☻","uid":15668542,"size":741223327,"categoryP":"video","categoryS":"movies","magnet":"?xt=urn:btih:203cac1a73e8577484cb6e220087a095ee1ee93b&amp;dn=Blood+Father+2016+Movies+HDRip+XviD+ESubs+AAC+New+%2BSample+%E2%98%BBrDX%E2%98%BB&amp;tr=udp%3A%2F%2Ftracker.leechers-paradise.org%3A6969&amp;tr=udp%3A%2F%2Fzer0day.ch%3A1337&amp;tr=udp%3A%2F%2Fopen.demonii.com%3A1337&amp;tr=udp%3A%2F%2Ftracker.coppersurfer.tk%3A6969&amp;tr=udp%3A%2F%2Fexodus.desync.com%3A6969","seeders":12,"leechers":4,"uploader":"basicssom","files":3,"time":1472222506,"description":"----------------------------------------------------------------\r\nBlood Father 2016 English Movies HDRip XviD ESubs AAC New Source with Sample ☻rDX☻\r\n\r\nSCREEN SHOTS &amp; POSTER:\r\n  \nhttp://postimage.co.nr/2016/8/rpm/index.htm  \nhttp://postimage.co.nr/2016/8/rpm/1.html  \nhttp://postimage.co.nr/2016/8/rpm/2.html  \nhttp://postimage.co.nr/2016/8/rpm/3.html  \nhttp://postimage.co.nr/2016/8/rpm/4.html  \nhttp://postimage.co.nr/2016/8/rpm/5.html  \nhttp://postimage.co.nr/2016/8/rpm/6.html  \nhttp://postimage.co.nr/2016/8/rpm/7.html  \nhttp://postimage.co.nr/2016/8/rpm/8.html  \nhttp://postimage.co.nr/2016/8/rpm/9.html  \nhttp://postimage.co.nr/2016/8/rpm/10.html\r\n\r\nFormat                                   : Matroska\r\nFormat version                           : Version 4 / Version 2\r\nFile size                                : 694 MiB\r\nDuration                                 : 1 h 28 min\r\nOverall bit rate                         : 1 100 kb/s\r\nMovie name                               : Blood Father 2016 English Movies HDRip XviD ESubs AAC New Source ☻rDX☻\r\n\r\nVideo\r\nID                                       : 1\r\nFormat                                   : MPEG-4 Visual\r\nFormat profile                           : Advanced   \r\nFormat settings, BVOP                    : 2\r\nFormat settings, QPel                    : No\r\nFormat settings, GMC                     : No warppoints\r\nFormat settings, Matrix                  : Default (H.263)\r\nMuxing mode                              : Packed bitstream\r\nCodec ID                                 : V_MS/VFW/FOURCC / XVID\r\nCodec ID/Hint                            : XviD\r\nDuration                                 : 1 h 28 min\r\nBit rate                                 : 950 kb/s\r\nWidth                                    : 640 pixels\r\nHeight                                   : 272 pixels\r\nDisplay aspect ratio                     : 2.35:1\r\nFrame rate mode                          : Constant\r\nFrame rate                               : 23.976 (24000/1001) FPS\r\nColor space                              : YUV\r\nChroma subsampling                       : 4:2:0\r\nBit depth                                : 8 bits\r\nScan type                                : Progressive\r\nCompression mode                         : Lossy\r\nBits/(Pixel*Frame)                       : 0.228\r\nStream size                              : 599 MiB (86%)\r\nTitle                                    : ☻rDX☻\r\nWriting library                          : XviD 64\r\nDefault                                  : Yes\r\nForced                                   : No\r\n\r\nAudio\r\nID                                       : 2\r\nFormat                                   : MPEG Audio\r\nFormat version                           : Version 1\r\nFormat profile                           : Layer 3\r\nMode                                     : Joint stereo\r\nMode extension                           : MS Stereo\r\nCodec ID                                 : A_MPEG/L3\r\nCodec ID/Hint                            : MP3\r\nDuration                                 : 1 h 28 min\r\nBit rate mode                            : Constant\r\nBit rate                                 : 128 kb/s\r\nChannel(s)                               : 2 channels\r\nSampling rate                            : 48.0 kHz\r\nCompression mode                         : Lossy\r\nStream size                              : 80.8 MiB (12%)\r\nTitle                                    : ☻rDX☻\r\nWriting library                          : LAME3.99r\r\nEncoding settings                        : -m j -V 4 -q 3 -lowpass 17 -b 128\r\nDefault                                  : Yes\r\nForced                                   : No\r\n\r\nIMDB \nhttp://www.imdb.com/title/tt3647498/","torrent":{"xt":"urn:btih:203cac1a73e8577484cb6e220087a095ee1ee93b","amp;dn":"Blood+Father+2016+Movies+HDRip+XviD+ESubs+AAC+New+%2BSample+%E2%98%BBrDX%E2%98%BB","amp;tr":["udp%3A%2F%2Ftracker.leechers-paradise.org%3A6969","udp%3A%2F%2Fzer0day.ch%3A1337","udp%3A%2F%2Fopen.demonii.com%3A1337","udp%3A%2F%2Ftracker.coppersurfer.tk%3A6969","udp%3A%2F%2Fexodus.desync.com%3A6969"],"infoHash":"203cac1a73e8577484cb6e220087a095ee1ee93b","infoHashBuffer":{"type":"Buffer","data":[32,60,172,26,115,232,87,116,132,203,110,34,0,135,160,149,238,30,233,59]},"announce":[],"urlList":[]}}